# xmcd CD database file
#
# Track frame offsets:
#	150
#	2757
#	21900
#	37705
#	58017
#	79002
#	96450
#	118642
#	139500
#	162850
#	180040
#	189905
#	199375
#	219900
#
# Disc length: 2982 seconds
#
# Revision: 0
# Processed by: cddbd v1.5.1PL0 Copyright (c) Steve Scherf et al.
# Submitted via: CDex 1.40Beta9
#
DISCID=aa0ba40e
DTITLE=BICYCLE - GAIA
DYEAR=1991
DGENRE=Japanese Pop
TTITLE0=Date With You:Part One
TTITLE1=自転車小僧
TTITLE2=わがままになりたい
TTITLE3=カゼかな
TTITLE4=しけん
TTITLE5=笑ってごらん
TTITLE6=光の束抱いて
TTITLE7=義務Me
TTITLE8=魔女
TTITLE9=もっと稼いでね
TTITLE10=牛肉・オレンジ
TTITLE11=GAIA:Instrumental
TTITLE12=でたらめな海
TTITLE13=Date With You:Part Two
EXTD=YEAR: 1991
EXTT0=
EXTT1=
EXTT2=
EXTT3=
EXTT4=
EXTT5=
EXTT6=
EXTT7=
EXTT8=
EXTT9=
EXTT10=
EXTT11=
EXTT12=
EXTT13=
PLAYORDER=
